<mxfile host="app.diagrams.net" modified="2021-09-18T06:24:08.910Z" agent="5.0 (Windows NT 10.0; WOW64) AppleWebKit/537.36 (KHTML, like Gecko) Chrome/80.0.3987.87 Safari/537.36 SE 2.X MetaSr 1.0" etag="zE72yCMlJxXnB0UPmVig" version="15.2.9" type="github">
  <diagram id="iEzbhgo0oH9kanC7SE5g" name="Page-1">
    <mxGraphModel dx="1422" dy="757" grid="1" gridSize="10" guides="1" tooltips="1" connect="1" arrows="1" fold="1" page="1" pageScale="1" pageWidth="827" pageHeight="1169" math="0" shadow="0">
      <root>
        <mxCell id="0" />
        <mxCell id="1" parent="0" />
        <mxCell id="meFgzsg0UzRtF0iSiee3-12" style="edgeStyle=orthogonalEdgeStyle;rounded=0;orthogonalLoop=1;jettySize=auto;html=1;exitX=0.5;exitY=0;exitDx=0;exitDy=0;entryX=0;entryY=0.5;entryDx=0;entryDy=0;" parent="1" source="meFgzsg0UzRtF0iSiee3-2" target="meFgzsg0UzRtF0iSiee3-3" edge="1">
          <mxGeometry relative="1" as="geometry" />
        </mxCell>
        <mxCell id="meFgzsg0UzRtF0iSiee3-2" value="User" style="ellipse;whiteSpace=wrap;html=1;aspect=fixed;fillColor=#ffe6cc;strokeColor=#d79b00;" parent="1" vertex="1">
          <mxGeometry x="20" y="430" width="80" height="80" as="geometry" />
        </mxCell>
        <mxCell id="meFgzsg0UzRtF0iSiee3-27" style="edgeStyle=orthogonalEdgeStyle;rounded=0;orthogonalLoop=1;jettySize=auto;html=1;exitX=0.5;exitY=1;exitDx=0;exitDy=0;" parent="1" source="meFgzsg0UzRtF0iSiee3-3" target="meFgzsg0UzRtF0iSiee3-25" edge="1">
          <mxGeometry relative="1" as="geometry" />
        </mxCell>
        <mxCell id="meFgzsg0UzRtF0iSiee3-3" value="" style="rounded=1;whiteSpace=wrap;html=1;fillColor=#d5e8d4;strokeColor=#82b366;align=center;" parent="1" vertex="1">
          <mxGeometry x="220" y="10" width="340" height="310" as="geometry" />
        </mxCell>
        <mxCell id="meFgzsg0UzRtF0iSiee3-5" value="T5" style="shape=umlActor;verticalLabelPosition=bottom;verticalAlign=top;html=1;outlineConnect=0;" parent="1" vertex="1">
          <mxGeometry x="420" y="40" width="30" height="60" as="geometry" />
        </mxCell>
        <mxCell id="meFgzsg0UzRtF0iSiee3-6" value="T1" style="shape=umlActor;verticalLabelPosition=bottom;verticalAlign=top;html=1;outlineConnect=0;" parent="1" vertex="1">
          <mxGeometry x="260" y="40" width="30" height="60" as="geometry" />
        </mxCell>
        <mxCell id="meFgzsg0UzRtF0iSiee3-7" value="T2" style="shape=umlActor;verticalLabelPosition=bottom;verticalAlign=top;html=1;outlineConnect=0;" parent="1" vertex="1">
          <mxGeometry x="300" y="40" width="30" height="60" as="geometry" />
        </mxCell>
        <mxCell id="meFgzsg0UzRtF0iSiee3-8" value="T3" style="shape=umlActor;verticalLabelPosition=bottom;verticalAlign=top;html=1;outlineConnect=0;" parent="1" vertex="1">
          <mxGeometry x="340" y="40" width="30" height="60" as="geometry" />
        </mxCell>
        <mxCell id="meFgzsg0UzRtF0iSiee3-9" value="T4" style="shape=umlActor;verticalLabelPosition=bottom;verticalAlign=top;html=1;outlineConnect=0;" parent="1" vertex="1">
          <mxGeometry x="380" y="40" width="30" height="60" as="geometry" />
        </mxCell>
        <mxCell id="meFgzsg0UzRtF0iSiee3-11" value="..................." style="text;html=1;strokeColor=none;fillColor=none;align=center;verticalAlign=middle;whiteSpace=wrap;rounded=0;" parent="1" vertex="1">
          <mxGeometry x="490" y="80" width="40" height="20" as="geometry" />
        </mxCell>
        <mxCell id="meFgzsg0UzRtF0iSiee3-14" value="结束" style="ellipse;whiteSpace=wrap;html=1;aspect=fixed;fillColor=#e51400;strokeColor=#B20000;fontColor=#ffffff;" parent="1" vertex="1">
          <mxGeometry x="670" y="780" width="80" height="80" as="geometry" />
        </mxCell>
        <mxCell id="meFgzsg0UzRtF0iSiee3-16" value="corePoolSize核心线程数" style="text;html=1;strokeColor=none;fillColor=none;align=center;verticalAlign=middle;whiteSpace=wrap;rounded=0;" parent="1" vertex="1">
          <mxGeometry x="260" y="130" width="140" height="20" as="geometry" />
        </mxCell>
        <mxCell id="meFgzsg0UzRtF0iSiee3-17" style="edgeStyle=orthogonalEdgeStyle;rounded=0;orthogonalLoop=1;jettySize=auto;html=1;exitX=0.5;exitY=1;exitDx=0;exitDy=0;" parent="1" source="meFgzsg0UzRtF0iSiee3-16" target="meFgzsg0UzRtF0iSiee3-16" edge="1">
          <mxGeometry relative="1" as="geometry" />
        </mxCell>
        <mxCell id="meFgzsg0UzRtF0iSiee3-19" value="BlockingQueue阻塞队列" style="text;html=1;strokeColor=none;fillColor=none;align=center;verticalAlign=middle;whiteSpace=wrap;rounded=0;" parent="1" vertex="1">
          <mxGeometry x="265" y="290" width="135" height="10" as="geometry" />
        </mxCell>
        <mxCell id="meFgzsg0UzRtF0iSiee3-20" value="maxPoolSize最大线程数" style="text;html=1;strokeColor=none;fillColor=none;align=center;verticalAlign=middle;whiteSpace=wrap;rounded=0;" parent="1" vertex="1">
          <mxGeometry x="260" y="170" width="140" height="10" as="geometry" />
        </mxCell>
        <mxCell id="meFgzsg0UzRtF0iSiee3-22" value="ThreadFactory 线程工厂" style="text;html=1;strokeColor=none;fillColor=none;align=center;verticalAlign=middle;whiteSpace=wrap;rounded=0;" parent="1" vertex="1">
          <mxGeometry x="257.5" y="210" width="145" height="10" as="geometry" />
        </mxCell>
        <mxCell id="meFgzsg0UzRtF0iSiee3-24" value="keepTime线程存活时间" style="text;html=1;strokeColor=none;fillColor=none;align=center;verticalAlign=middle;whiteSpace=wrap;rounded=0;" parent="1" vertex="1">
          <mxGeometry x="265" y="250" width="130" height="10" as="geometry" />
        </mxCell>
        <mxCell id="meFgzsg0UzRtF0iSiee3-28" style="edgeStyle=orthogonalEdgeStyle;rounded=0;orthogonalLoop=1;jettySize=auto;html=1;exitX=1;exitY=0.5;exitDx=0;exitDy=0;" parent="1" source="meFgzsg0UzRtF0iSiee3-25" target="meFgzsg0UzRtF0iSiee3-14" edge="1">
          <mxGeometry relative="1" as="geometry" />
        </mxCell>
        <mxCell id="meFgzsg0UzRtF0iSiee3-35" style="edgeStyle=orthogonalEdgeStyle;rounded=0;orthogonalLoop=1;jettySize=auto;html=1;exitX=0.5;exitY=1;exitDx=0;exitDy=0;entryX=0.5;entryY=0;entryDx=0;entryDy=0;" parent="1" source="meFgzsg0UzRtF0iSiee3-25" target="meFgzsg0UzRtF0iSiee3-34" edge="1">
          <mxGeometry relative="1" as="geometry" />
        </mxCell>
        <mxCell id="meFgzsg0UzRtF0iSiee3-25" value="是否存在闲置核心线程" style="rhombus;whiteSpace=wrap;html=1;fillColor=#b0e3e6;strokeColor=#0e8088;" parent="1" vertex="1">
          <mxGeometry x="315" y="360" width="150" height="80" as="geometry" />
        </mxCell>
        <mxCell id="meFgzsg0UzRtF0iSiee3-29" value="直接执行" style="text;html=1;strokeColor=none;fillColor=none;align=center;verticalAlign=middle;whiteSpace=wrap;rounded=0;" parent="1" vertex="1">
          <mxGeometry x="560" y="380" width="60" height="10" as="geometry" />
        </mxCell>
        <mxCell id="meFgzsg0UzRtF0iSiee3-31" value="是" style="text;html=1;strokeColor=none;fillColor=none;align=center;verticalAlign=middle;whiteSpace=wrap;rounded=0;" parent="1" vertex="1">
          <mxGeometry x="450" y="380" width="40" height="20" as="geometry" />
        </mxCell>
        <mxCell id="meFgzsg0UzRtF0iSiee3-32" value="否" style="text;html=1;strokeColor=none;fillColor=none;align=center;verticalAlign=middle;whiteSpace=wrap;rounded=0;" parent="1" vertex="1">
          <mxGeometry x="350" y="440" width="40" height="20" as="geometry" />
        </mxCell>
        <mxCell id="meFgzsg0UzRtF0iSiee3-39" style="edgeStyle=orthogonalEdgeStyle;rounded=0;orthogonalLoop=1;jettySize=auto;html=1;exitX=1;exitY=0.5;exitDx=0;exitDy=0;entryX=0;entryY=0.5;entryDx=0;entryDy=0;" parent="1" source="meFgzsg0UzRtF0iSiee3-34" target="meFgzsg0UzRtF0iSiee3-38" edge="1">
          <mxGeometry relative="1" as="geometry" />
        </mxCell>
        <mxCell id="meFgzsg0UzRtF0iSiee3-41" style="edgeStyle=orthogonalEdgeStyle;rounded=0;orthogonalLoop=1;jettySize=auto;html=1;exitX=0.5;exitY=1;exitDx=0;exitDy=0;entryX=0.5;entryY=0;entryDx=0;entryDy=0;" parent="1" source="meFgzsg0UzRtF0iSiee3-34" target="meFgzsg0UzRtF0iSiee3-40" edge="1">
          <mxGeometry relative="1" as="geometry" />
        </mxCell>
        <mxCell id="meFgzsg0UzRtF0iSiee3-34" value="阻塞队列是否已满" style="rhombus;whiteSpace=wrap;html=1;fillColor=#b1ddf0;strokeColor=#10739e;" parent="1" vertex="1">
          <mxGeometry x="315" y="480" width="150" height="80" as="geometry" />
        </mxCell>
        <mxCell id="meFgzsg0UzRtF0iSiee3-36" value="否，则放入队列中，等待核心线程执行" style="text;html=1;strokeColor=none;fillColor=none;align=center;verticalAlign=middle;whiteSpace=wrap;rounded=0;" parent="1" vertex="1">
          <mxGeometry x="450" y="470" width="250" height="20" as="geometry" />
        </mxCell>
        <mxCell id="meFgzsg0UzRtF0iSiee3-38" value="阻塞队列" style="rounded=0;whiteSpace=wrap;html=1;fillColor=#fad9d5;strokeColor=#ae4132;" parent="1" vertex="1">
          <mxGeometry x="500" y="495" width="180" height="30" as="geometry" />
        </mxCell>
        <mxCell id="meFgzsg0UzRtF0iSiee3-48" style="edgeStyle=orthogonalEdgeStyle;rounded=0;orthogonalLoop=1;jettySize=auto;html=1;entryX=0.5;entryY=0;entryDx=0;entryDy=0;" parent="1" source="meFgzsg0UzRtF0iSiee3-40" target="meFgzsg0UzRtF0iSiee3-47" edge="1">
          <mxGeometry relative="1" as="geometry" />
        </mxCell>
        <mxCell id="meFgzsg0UzRtF0iSiee3-40" value="是否超过最大线程数" style="rhombus;whiteSpace=wrap;html=1;fillColor=#d0cee2;strokeColor=#56517e;" parent="1" vertex="1">
          <mxGeometry x="315" y="595" width="150" height="75" as="geometry" />
        </mxCell>
        <mxCell id="meFgzsg0UzRtF0iSiee3-42" value="是" style="text;html=1;strokeColor=none;fillColor=none;align=center;verticalAlign=middle;whiteSpace=wrap;rounded=0;" parent="1" vertex="1">
          <mxGeometry x="350" y="560" width="40" height="20" as="geometry" />
        </mxCell>
        <mxCell id="meFgzsg0UzRtF0iSiee3-43" value="RejectHandler决绝策略" style="text;html=1;strokeColor=none;fillColor=none;align=center;verticalAlign=middle;whiteSpace=wrap;rounded=0;" parent="1" vertex="1">
          <mxGeometry x="414" y="135" width="135" height="10" as="geometry" />
        </mxCell>
        <mxCell id="meFgzsg0UzRtF0iSiee3-45" value="否，创建线程从队列中取任务执行，执行完成后，超过存活时间自动销毁" style="text;html=1;strokeColor=none;fillColor=none;align=center;verticalAlign=middle;whiteSpace=wrap;rounded=0;" parent="1" vertex="1">
          <mxGeometry x="450" y="590" width="250" height="20" as="geometry" />
        </mxCell>
        <mxCell id="meFgzsg0UzRtF0iSiee3-46" value="是" style="text;html=1;strokeColor=none;fillColor=none;align=center;verticalAlign=middle;whiteSpace=wrap;rounded=0;" parent="1" vertex="1">
          <mxGeometry x="350" y="670" width="40" height="20" as="geometry" />
        </mxCell>
        <mxCell id="meFgzsg0UzRtF0iSiee3-49" style="edgeStyle=orthogonalEdgeStyle;rounded=0;orthogonalLoop=1;jettySize=auto;html=1;" parent="1" source="meFgzsg0UzRtF0iSiee3-47" edge="1">
          <mxGeometry relative="1" as="geometry">
            <mxPoint x="60" y="520" as="targetPoint" />
          </mxGeometry>
        </mxCell>
        <mxCell id="meFgzsg0UzRtF0iSiee3-47" value="执行拒绝策略" style="rhombus;whiteSpace=wrap;html=1;fillColor=#bac8d3;strokeColor=#23445d;" parent="1" vertex="1">
          <mxGeometry x="315" y="700" width="150" height="75" as="geometry" />
        </mxCell>
      </root>
    </mxGraphModel>
  </diagram>
</mxfile>
